# xmcd
#
# Track frame offsets:
#	150
#	21975
#	41550
#	73650
#	95475
#	115050
#
# Disc length: 1960 seconds
#
# Revision: 1
# Processed by: cddbd v1.5.1PL0 Copyright (c) Steve Scherf et al.
# Submitted via: CDex 1.50Beta5
#
DISCID=4b07a606
DTITLE=Shela - Cherry Blossom
DYEAR=2003
DGENRE=Pop
TTITLE0=星が見える場所
TTITLE1=Let Me Be With You
TTITLE2=In My Pocket (Groove That Soul MIX)
TTITLE3=星が見える場所 - Instrumental -
TTITLE4=Let Me Be With You - Instrumental -
TTITLE5=In My Pocket (Groove That Soul MIX) - Instrumental -
EXTD=
EXTT0=
EXTT1=
EXTT2=
EXTT3=
EXTT4=
EXTT5=
PLAYORDER=
